<svg width="97" height="91" viewBox="0 0 97 91" fill="none" xmlns="http://www.w3.org/2000/svg">
<path d="M50.4059 36.4032L78.8125 46.5548V87.9668C78.8125 88.7713 78.4931 89.5428 77.9247 90.1116C77.3562 90.6804 76.5852 91 75.7812 91H63.6562C62.8523 91 62.0813 90.6804 61.5128 90.1116C60.9444 89.5428 60.625 88.7713 60.625 87.9668V66.7348H30.3125V87.9668C30.3125 88.7713 29.9931 89.5428 29.4247 90.1116C28.8562 90.6804 28.0852 91 27.2812 91H15.1562C14.3523 91 13.5813 90.6804 13.0128 90.1116C12.4444 89.5428 12.125 88.7713 12.125 87.9668V47.4155C5.08492 44.9037 0 38.2345 0 30.3369C0 28.7281 0.638726 27.1851 1.77566 26.0474C2.9126 24.9098 4.45462 24.2706 6.0625 24.2706C7.67038 24.2706 9.2124 24.9098 10.3493 26.0474C11.4863 27.1851 12.125 28.7281 12.125 30.3369C12.128 31.9449 12.7677 33.4861 13.904 34.6231C15.0403 35.7601 16.5805 36.4002 18.1875 36.4032H50.4059ZM97 15.1712V21.2375C97 24.4553 95.7225 27.5412 93.4487 29.8165C91.1748 32.0918 88.0908 33.3701 84.875 33.3701H78.8125V40.1151L54.5625 31.4497V3.03857C54.5625 0.337169 57.8249 -1.01638 59.7365 0.894511L64.9047 6.07172H75.0651C77.1321 6.07172 79.5646 7.57313 80.4873 9.42525L81.8438 12.138H93.9688C94.7727 12.138 95.5437 12.4576 96.1122 13.0264C96.6806 13.5952 97 14.3667 97 15.1712ZM75.7812 15.1712C75.7812 14.5713 75.6035 13.9849 75.2704 13.4861C74.9373 12.9873 74.4639 12.5985 73.91 12.3689C73.3561 12.1393 72.7466 12.0793 72.1586 12.1963C71.5706 12.3133 71.0305 12.6022 70.6066 13.0264C70.1827 13.4506 69.894 13.9911 69.777 14.5794C69.66 15.1678 69.7201 15.7777 69.9495 16.3319C70.1789 16.8862 70.5674 17.3599 71.0659 17.6932C71.5644 18.0264 72.1505 18.2043 72.75 18.2043C73.5539 18.2043 74.325 17.8848 74.8934 17.3159C75.4619 16.7471 75.7812 15.9756 75.7812 15.1712Z" fill="black"/>
</svg>
