<?xml version="1.0" encoding="utf-8"?>
<!-- Generator: Adobe Illustrator 24.2.1, SVG Export Plug-In . SVG Version: 6.00 Build 0)  -->
<svg version="1.1" id="Layer_1" xmlns="http://www.w3.org/2000/svg" xmlns:xlink="http://www.w3.org/1999/xlink" x="0px" y="0px"
	 viewBox="0 0 97 91" style="enable-background:new 0 0 97 91;" xml:space="preserve">
<style type="text/css">
	.st0{fill:#F3CC57;}
</style>
<rect x="-0.3" y="-0.7" class="st0" width="97.9" height="92"/>
<path d="M50.4,36.4l28.4,10.2V88c0,0.8-0.3,1.6-0.9,2.1c-0.6,0.6-1.3,0.9-2.1,0.9H63.7c-0.8,0-1.6-0.3-2.1-0.9
	c-0.6-0.6-0.9-1.3-0.9-2.1V66.7H30.3V88c0,0.8-0.3,1.6-0.9,2.1c-0.6,0.6-1.3,0.9-2.1,0.9H15.2c-0.8,0-1.6-0.3-2.1-0.9
	c-0.6-0.6-0.9-1.3-0.9-2.1V47.4C5.1,44.9,0,38.2,0,30.3c0-1.6,0.6-3.2,1.8-4.3c1.1-1.1,2.7-1.8,4.3-1.8s3.1,0.6,4.3,1.8
	c1.1,1.1,1.8,2.7,1.8,4.3c0,1.6,0.6,3.1,1.8,4.3s2.7,1.8,4.3,1.8H50.4z M97,15.2v6.1c0,3.2-1.3,6.3-3.6,8.6
	c-2.3,2.3-5.4,3.6-8.6,3.6h-6.1v6.7l-24.2-8.7V3c0-2.7,3.3-4.1,5.2-2.1l5.2,5.2h10.2c2.1,0,4.5,1.5,5.4,3.4l1.4,2.7H94
	c0.8,0,1.6,0.3,2.1,0.9C96.7,13.6,97,14.4,97,15.2z M75.8,15.2c0-0.6-0.2-1.2-0.5-1.7s-0.8-0.9-1.4-1.1c-0.6-0.2-1.2-0.3-1.8-0.2
	c-0.6,0.1-1.1,0.4-1.6,0.8c-0.4,0.4-0.7,1-0.8,1.6c-0.1,0.6-0.1,1.2,0.2,1.8c0.2,0.6,0.6,1,1.1,1.4c0.5,0.3,1.1,0.5,1.7,0.5
	c0.8,0,1.6-0.3,2.1-0.9C75.5,16.7,75.8,16,75.8,15.2z"/>
</svg>
