<svg width="40" height="40" viewBox="0 0 40 40" fill="none" xmlns="http://www.w3.org/2000/svg">
<circle cx="20" cy="20" r="18" fill="#FFE699"/>
<path d="M19.9999 8.57178C18.5872 8.57178 17.2062 8.9907 16.0316 9.77557C14.8569 10.5604 13.9414 11.676 13.4008 12.9812C12.8602 14.2864 12.7187 15.7226 12.9943 17.1081C13.2699 18.4937 13.9502 19.7664 14.9492 20.7654C15.9481 21.7643 17.2208 22.4446 18.6064 22.7202C19.992 22.9958 21.4282 22.8544 22.7334 22.3138C24.0386 21.7731 25.1541 20.8576 25.939 19.683C26.7238 18.5084 27.1428 17.1274 27.1428 15.7146C27.1428 13.8202 26.3902 12.0034 25.0507 10.6639C23.7111 9.32433 21.8943 8.57178 19.9999 8.57178Z" fill="#1B141F"/>
<path d="M20 0C16.0444 0 12.1776 1.17298 8.8886 3.37061C5.59962 5.56823 3.03617 8.69181 1.52242 12.3463C0.00866568 16.0009 -0.387401 20.0222 0.384303 23.9018C1.15601 27.7814 3.06082 31.3451 5.85787 34.1421C8.65492 36.9392 12.2186 38.844 16.0982 39.6157C19.9778 40.3874 23.9991 39.9913 27.6537 38.4776C31.3082 36.9638 34.4318 34.4004 36.6294 31.1114C38.827 27.8224 40 23.9556 40 20C39.9939 14.6975 37.8849 9.61396 34.1355 5.86454C30.386 2.11513 25.3025 0.0060496 20 0ZM31.4171 32.7514C31.3887 30.8776 30.6252 29.09 29.2913 27.7737C27.9574 26.4574 26.1597 25.7178 24.2857 25.7143H15.7143C13.8403 25.7178 12.0426 26.4574 10.7087 27.7737C9.37478 29.09 8.61133 30.8776 8.58286 32.7514C5.99224 30.4382 4.16534 27.3927 3.34406 24.0181C2.52278 20.6435 2.74586 17.0991 3.98378 13.8541C5.22169 10.6091 7.41604 7.81667 10.2763 5.84652C13.1365 3.87638 16.5276 2.82146 20.0007 2.82146C23.4738 2.82146 26.865 3.87638 29.7252 5.84652C32.5854 7.81667 34.7798 10.6091 36.0177 13.8541C37.2556 17.0991 37.4787 20.6435 36.6574 24.0181C35.8361 27.3927 34.0092 30.4382 31.4186 32.7514H31.4171Z" fill="#1B141F"/>
</svg>
