<svg width="375" height="1406" viewBox="0 0 375 1406" fill="none" xmlns="http://www.w3.org/2000/svg">
<path d="M324 703V1322.5C324 1322.5 324 1333 316 1341C308 1349 295.5 1349 295.5 1349H81C81 1349 69 1349 60 1358C51 1367 51 1377.5 51 1377.5V1406" stroke="#B7B3B9" stroke-width="8"/>
<path d="M51 0V619.5C51 619.5 51 630 59 638C67 646 79.5 646 79.5 646H294C294 646 306 646 315 655C324 664 324 674.5 324 674.5V703" stroke="#00CD08" stroke-width="8"/>
<path fill-rule="evenodd" clip-rule="evenodd" d="M293.985 650L259 650V642H294V646C294 642 294.002 642 294.003 642H294.006H294.014L294.032 642L294.083 642.001C294.122 642.001 294.173 642.002 294.234 642.003C294.358 642.006 294.527 642.012 294.736 642.023C295.155 642.044 295.739 642.085 296.457 642.165C297.892 642.324 299.881 642.64 302.177 643.266C306.752 644.513 312.695 647.039 317.828 652.172C322.893 657.236 325.434 662.736 326.706 666.976C327.342 669.094 327.664 670.91 327.828 672.223C327.911 672.88 327.953 673.414 327.976 673.801C327.982 673.915 327.987 674.017 327.991 674.105C327.993 674.166 327.995 674.221 327.996 674.269C327.998 674.328 327.999 674.376 327.999 674.415L328 674.465L328 674.485L328 674.493V674.497C328 674.498 328 674.5 324 674.5H328V703V1322.5H324C328 1322.5 328 1322.5 328 1322.5V1322.51L328 1322.51L328 1322.53L327.999 1322.58L327.999 1322.63C327.998 1322.66 327.998 1322.69 327.997 1322.72C327.994 1322.83 327.989 1322.98 327.979 1323.17C327.96 1323.55 327.922 1324.07 327.85 1324.71C327.706 1325.99 327.421 1327.77 326.856 1329.81C325.731 1333.89 323.453 1339.2 318.828 1343.83C314.111 1348.55 308.199 1350.79 303.692 1351.89C301.41 1352.44 299.406 1352.72 297.962 1352.86C297.238 1352.93 296.648 1352.96 296.227 1352.98C296.017 1352.99 295.848 1352.99 295.726 1353C295.665 1353 295.615 1353 295.577 1353L295.529 1353L295.512 1353H295.506H295.503C295.501 1353 295.5 1353 295.5 1349V1353L81.0149 1353L81.0131 1353C81.0064 1353 80.9887 1353 80.9606 1353C80.9043 1353 80.8062 1353.01 80.6699 1353.01C80.3971 1353.03 79.9731 1353.06 79.4261 1353.12C78.329 1353.24 76.7561 1353.49 74.9275 1353.98C71.2517 1354.99 66.6955 1356.96 62.8284 1360.83C58.8925 1364.76 56.9344 1369.01 55.9563 1372.27C55.467 1373.91 55.2269 1375.28 55.1097 1376.21C55.0513 1376.68 55.0238 1377.04 55.0109 1377.26C55.0045 1377.37 55.0018 1377.45 55.0006 1377.49L55 1377.5V1377.5V1377.51L55 1377.51L54.9999 1377.52L55 1377.52V1406H47V1377.5H51C47 1377.5 47 1377.5 47 1377.5V1377.49L47 1377.48L47.0001 1377.47L47.0006 1377.42C47.0012 1377.38 47.0021 1377.33 47.0038 1377.27C47.0051 1377.22 47.0069 1377.17 47.0093 1377.1C47.0128 1377.02 47.0176 1376.92 47.0242 1376.8C47.0465 1376.41 47.0894 1375.88 47.1715 1375.22C47.3356 1373.91 47.6581 1372.09 48.2937 1369.98C49.5656 1365.74 52.1075 1360.24 57.1716 1355.17C62.3045 1350.04 68.2483 1347.51 72.8225 1346.27C75.1189 1345.64 77.1085 1345.32 78.5426 1345.17C79.2613 1345.09 79.8451 1345.04 80.2637 1345.02C80.4731 1345.01 80.6416 1345.01 80.7655 1345L80.825 1345C80.8608 1345 80.8916 1345 80.9175 1345L80.9676 1345L80.986 1345H80.9936H80.9969C80.9985 1345 81 1345 81 1349V1345H295.489H295.492H295.496C295.505 1345 295.527 1345 295.559 1345C295.59 1345 295.63 1345 295.681 1345C295.735 1344.99 295.801 1344.99 295.878 1344.99C296.172 1344.98 296.622 1344.95 297.194 1344.89C298.344 1344.78 299.965 1344.56 301.808 1344.11C305.551 1343.21 309.889 1341.45 313.172 1338.17C316.547 1334.8 318.269 1330.86 319.144 1327.69C319.579 1326.11 319.794 1324.76 319.9 1323.82C319.93 1323.55 319.951 1323.32 319.966 1323.13C319.977 1322.98 319.985 1322.86 319.99 1322.76C319.996 1322.65 319.998 1322.57 319.999 1322.52L320 1322.49V703V674.52L320 674.519L320 674.512L320 674.506V674.503V674.5L319.999 674.491C319.998 674.45 319.995 674.373 319.989 674.262C319.976 674.039 319.949 673.683 319.89 673.215C319.773 672.277 319.533 670.906 319.044 669.274C318.066 666.014 316.107 661.764 312.172 657.828C308.305 653.961 303.748 651.987 300.073 650.984C298.244 650.485 296.671 650.238 295.574 650.116C295.027 650.055 294.603 650.026 294.33 650.012C294.194 650.005 294.096 650.002 294.039 650.001C294.023 650.001 294.01 650 294.001 650L293.987 650L293.985 650Z" fill="url(#paint0_linear)"/>
<defs>
<linearGradient id="paint0_linear" x1="314.5" y1="713.5" x2="337" y2="791" gradientUnits="userSpaceOnUse">
<stop stop-color="#00CD08"/>
<stop stop-color="#00CD08" stop-opacity="0.932687"/>
<stop offset="1" stop-color="#00CD08" stop-opacity="0"/>
</linearGradient>
</defs>
</svg>
