<svg width="46" height="57" viewBox="0 0 46 57" fill="none" xmlns="http://www.w3.org/2000/svg">
<g filter="url(#filter0_d)">
<path fill-rule="evenodd" clip-rule="evenodd" d="M28.1771 4.27405C28.1383 3.48548 27.5006 2.84548 26.7326 3.0329C21.3909 4.34719 11.6354 12.2718 17.1326 23.2706C18.216 25.4329 18.0286 27.0992 17.1417 27.9838C15.6789 29.4466 12.8583 29.5472 10.5703 23.8352C10.2709 23.0878 9.432 22.6718 8.73486 23.0718C5.19886 25.1015 3 29.6089 3 34.2695C3 45.3072 12.4217 53.1266 23.4229 53.1266C34.4217 53.1266 43 45.2683 43 34.2695C43 27.5518 39.6491 24.0249 36.1291 20.322C32.4491 16.45 28.1771 12.3769 28.1771 4.27405Z" fill="url(#paint0_linear)"/>
</g>
<defs>
<filter id="filter0_d" x="0" y="0" width="46" height="56.1266" filterUnits="userSpaceOnUse" color-interpolation-filters="sRGB">
<feFlood flood-opacity="0" result="BackgroundImageFix"/>
<feColorMatrix in="SourceAlpha" type="matrix" values="0 0 0 0 0 0 0 0 0 0 0 0 0 0 0 0 0 0 127 0" result="hardAlpha"/>
<feOffset/>
<feGaussianBlur stdDeviation="1.5"/>
<feComposite in2="hardAlpha" operator="out"/>
<feColorMatrix type="matrix" values="0 0 0 0 0 0 0 0 0 0 0 0 0 0 0 0 0 0 0.25 0"/>
<feBlend mode="normal" in2="BackgroundImageFix" result="effect1_dropShadow"/>
<feBlend mode="normal" in="SourceGraphic" in2="effect1_dropShadow" result="shape"/>
</filter>
<linearGradient id="paint0_linear" x1="23" y1="3" x2="23" y2="53.1266" gradientUnits="userSpaceOnUse">
<stop stop-color="#FF2424"/>
<stop offset="0.5" stop-color="#FF6E12"/>
<stop offset="1" stop-color="#FFB800"/>
</linearGradient>
</defs>
</svg>
