<svg width="186" height="109" viewBox="0 0 186 109" fill="none" xmlns="http://www.w3.org/2000/svg">
<path fill-rule="evenodd" clip-rule="evenodd" d="M155.268 89.329C173.551 79.9205 185 66.4546 185 51.5C185 23.0573 143.586 0 92.5 0C41.4137 0 0 23.0573 0 51.5C0 79.9427 41.4137 103 92.5 103C107.898 103 122.417 100.905 135.189 97.1997C143.543 104.13 163.309 107.929 172.69 109C164.978 105.39 158.601 95.7967 155.268 89.329Z" fill="#FBD157"/>
<path d="M80.7858 50.5H82.3312C81.8724 48.1094 79.8682 46.4673 77.2602 46.4673C74.0908 46.4673 71.8511 48.9062 71.8511 52.8182C71.8511 56.7301 74.0727 59.169 77.3568 59.169C80.3028 59.169 82.4037 57.207 82.4037 54.1463V52.8182H77.6949V54.1463H80.9548C80.9126 56.3679 79.4516 57.7685 77.3568 57.7685C75.0628 57.7685 73.3 56.0298 73.3 52.8182C73.3 49.6065 75.0628 47.8679 77.2602 47.8679C79.0471 47.8679 80.2606 48.8761 80.7858 50.5ZM84.7747 59H86.1994V53.1321C86.1994 51.8764 87.1895 50.9588 88.5417 50.9588C88.9221 50.9588 89.3145 51.0312 89.411 51.0554V49.6065C89.248 49.5945 88.8738 49.5824 88.6625 49.5824C87.5517 49.5824 86.5858 50.2102 86.2477 51.1278H86.1511V49.7273H84.7747V59ZM94.7054 59.1932C96.589 59.1932 97.9654 58.2514 98.4 56.8509L97.0236 56.4645C96.6614 57.4304 95.8223 57.9134 94.7054 57.9134C93.0332 57.9134 91.8801 56.8327 91.8137 54.8466H98.5449V54.2429C98.5449 50.7898 96.4924 49.6065 94.5605 49.6065C92.0492 49.6065 90.383 51.5866 90.383 54.4361C90.383 57.2855 92.025 59.1932 94.7054 59.1932ZM91.8137 53.6151C91.9103 52.1722 92.9306 50.8864 94.5605 50.8864C96.106 50.8864 97.0961 52.0455 97.0961 53.6151H91.8137ZM103.441 59.2173C105.059 59.2173 105.904 58.348 106.194 57.7443H106.266V59H107.691V52.8906C107.691 49.9446 105.445 49.6065 104.262 49.6065C102.861 49.6065 101.268 50.0895 100.543 51.7798L101.895 52.2628C102.209 51.5866 102.952 50.8622 104.31 50.8622C105.62 50.8622 106.266 51.5565 106.266 52.7457V52.794C106.266 53.4822 105.566 53.4219 103.876 53.6392C102.155 53.8626 100.278 54.2429 100.278 56.3679C100.278 58.179 101.678 59.2173 103.441 59.2173ZM103.658 57.9375C102.523 57.9375 101.702 57.4304 101.702 56.4403C101.702 55.3537 102.692 55.0156 103.803 54.8707C104.407 54.7983 106.025 54.6293 106.266 54.3395V55.6435C106.266 56.8026 105.349 57.9375 103.658 57.9375ZM114.324 49.7273H112.344V47.5057H110.919V49.7273H109.519V50.9347H110.919V56.7301C110.919 58.348 112.223 59.1207 113.43 59.1207C113.962 59.1207 114.3 59.0241 114.493 58.9517L114.203 57.6719C114.082 57.696 113.889 57.7443 113.575 57.7443C112.948 57.7443 112.344 57.5511 112.344 56.3438V50.9347H114.324V49.7273Z" fill="black"/>
</svg>
