<svg width="186" height="109" viewBox="0 0 186 109" fill="none" xmlns="http://www.w3.org/2000/svg">
<path fill-rule="evenodd" clip-rule="evenodd" d="M92.5 103C143.586 103 185 79.9427 185 51.5C185 23.0573 143.586 0 92.5 0C41.4137 0 0 23.0573 0 51.5C0 66.0131 10.7825 79.124 28.1308 88.485C24.8592 95.0909 18.3758 105.233 10.5 109C19.973 107.895 40.0353 103.948 48.244 96.7342C61.3895 100.729 76.4685 103 92.5 103Z" fill="#FBD157"/>
<path d="M74.9322 59H76.4294V54.1705H79.1339C79.2426 54.1705 79.3452 54.1705 79.4478 54.1644L82.0558 59H83.7944L80.9993 53.8928C82.575 53.3555 83.3115 52.0696 83.3115 50.4276C83.3115 48.2422 82.0075 46.6364 79.1098 46.6364H74.9322V59ZM76.4294 52.8182V47.9645H79.0615C81.0657 47.9645 81.8385 48.9425 81.8385 50.4276C81.8385 51.9126 81.0657 52.8182 79.0856 52.8182H76.4294ZM91.4568 55.2088C91.4568 56.9474 90.1287 57.7443 89.0662 57.7443C87.8829 57.7443 87.0378 56.875 87.0378 55.5227V49.7273H85.6131V55.6193C85.6131 57.9858 86.8687 59.1207 88.6074 59.1207C90.0079 59.1207 90.9256 58.3722 91.3602 57.4304H91.4568V59H92.8815V49.7273H91.4568V55.2088ZM99.6203 49.7273H97.5435V48.7855C97.5435 47.8679 97.9299 47.3849 98.8717 47.3849C99.2822 47.3849 99.5237 47.4815 99.6685 47.5298L100.079 46.2983C99.8617 46.2017 99.4271 46.0568 98.7268 46.0568C97.3987 46.0568 96.1188 46.8537 96.1188 48.4474V49.7273H94.6217V50.9347H96.1188V59H97.5435V50.9347H99.6203V49.7273ZM105.746 49.7273H103.67V48.7855C103.67 47.8679 104.056 47.3849 104.998 47.3849C105.408 47.3849 105.65 47.4815 105.795 47.5298L106.205 46.2983C105.988 46.2017 105.553 46.0568 104.853 46.0568C103.525 46.0568 102.245 46.8537 102.245 48.4474V49.7273H100.748V50.9347H102.245V59H103.67V50.9347H105.746V49.7273ZM111.872 49.7273H109.795V48.7855C109.795 47.8679 110.182 47.3849 111.124 47.3849C111.534 47.3849 111.776 47.4815 111.92 47.5298L112.331 46.2983C112.114 46.2017 111.679 46.0568 110.979 46.0568C109.651 46.0568 108.371 46.8537 108.371 48.4474V49.7273H106.874V50.9347H108.371V59H109.795V50.9347H111.872V49.7273Z" fill="black"/>
</svg>
